<svg version="1.1" id="Layer_1" xmlns="http://www.w3.org/2000/svg" xmlns:xlink="http://www.w3.org/1999/xlink" x="0px" y="0px"
	 width="100%" viewBox="0 0 224 224" enable-background="new 0 0 224 224" xml:space="preserve">
<path fill="#000000" opacity="1.000000" stroke="none" 
	d="
M223.500000,225.000000 
	C222.592072,223.319290 220.568176,223.372772 219.594040,221.666046 
	C220.186005,217.724518 225.278641,215.396774 224.813553,210.325500 
	C225.000000,214.500000 225.019485,219.000183 224.976990,223.499786 
	C224.971237,224.108307 225.596115,225.341858 223.500000,225.000000 
z"/>
<path fill="#000000" opacity="1.000000" stroke="none" 
	d="
M118.022392,162.028809 
	C115.638161,163.569183 116.721672,165.501526 117.497437,167.316895 
	C120.178307,173.590515 122.811172,179.888245 125.671410,186.080215 
	C127.333916,189.679276 127.360504,192.688095 124.147423,195.463745 
	C121.504684,197.746689 118.914192,200.132523 116.592911,202.733673 
	C114.095299,205.532471 112.149605,204.842819 110.044693,202.407150 
	C108.960022,201.152039 107.753448,199.994781 106.539635,198.859970 
	C98.632706,191.467850 98.596207,190.978638 103.496124,181.103302 
	C105.564407,176.934875 107.380463,172.637772 109.214691,168.357819 
	C110.789032,164.684280 110.345558,161.379486 107.704277,158.144714 
	C105.579903,155.543015 103.337585,152.800552 103.342522,149.034409 
	C101.404144,151.844070 103.233604,154.127686 104.733810,155.956238 
	C109.061729,161.231430 109.430244,166.344177 105.929428,172.297928 
	C103.416451,176.571671 101.975807,181.461945 99.820869,185.964249 
	C97.761238,190.267456 98.079063,193.827499 101.857285,197.081451 
	C104.372009,199.247223 106.538101,201.818924 108.849091,204.219681 
	C110.108566,205.528107 111.409828,206.827652 111.284111,208.869690 
	C104.653015,209.832947 87.324158,204.376587 80.468399,199.101105 
	C88.455238,193.690689 84.607445,185.384735 85.523163,178.211990 
	C85.895081,175.298859 84.904587,172.229691 85.124962,169.275589 
	C85.579628,163.180832 85.086311,157.694733 78.953629,154.379669 
	C76.671059,153.145828 78.133957,149.757919 75.478203,147.842865 
	C81.295029,145.412018 87.111847,142.981155 92.928673,140.550308 
	C85.927818,141.468872 79.234253,143.960312 72.323448,145.476868 
	C65.273445,147.023956 57.611912,146.326202 50.930016,151.533310 
	C52.025837,147.918488 54.707558,145.437210 58.738453,145.362991 
	C64.295532,145.260727 68.936989,142.506943 74.033058,141.147873 
	C79.826233,139.602905 81.823639,133.945572 78.895309,127.905045 
	C77.088074,124.177094 74.877731,120.604546 72.511589,117.196014 
	C67.793396,110.399269 65.084946,102.650406 62.368702,95.024574 
	C60.703205,90.348701 62.032440,84.853462 63.652229,80.289894 
	C66.698265,71.708069 67.075668,63.029327 66.749680,54.188782 
	C66.570747,49.336254 67.867996,44.966034 70.277634,40.864498 
	C71.351379,39.036846 72.420654,37.101547 74.939644,36.815548 
	C75.909348,38.669025 74.926781,40.172272 74.200836,41.587784 
	C69.437103,50.876526 68.310577,60.551632 70.854607,70.673500 
	C71.259041,72.282623 71.482117,73.793274 70.324158,75.397926 
	C65.875877,81.562195 65.694565,96.975449 69.850594,103.261673 
	C70.034225,103.539429 70.166405,103.944534 70.426712,104.064735 
	C78.992607,108.020218 80.918610,117.361145 86.464287,123.751328 
	C89.209541,126.914635 91.798218,130.395844 96.282349,131.635178 
	C88.782143,125.439522 84.419846,117.094131 79.946930,108.816444 
	C79.573410,108.125198 78.839600,107.572105 78.167732,107.107231 
	C70.284607,101.652870 64.964310,89.803787 69.379059,81.251144 
	C72.340118,75.514694 73.517197,70.401527 73.402100,64.438789 
	C73.400635,64.363129 73.657921,64.282471 73.794441,64.204140 
	C80.732399,72.151924 80.891983,73.942039 75.146919,81.562752 
	C78.695946,83.082100 81.603073,84.094627 83.267342,79.017159 
	C84.687187,74.685410 88.439392,73.190346 92.710083,71.858330 
	C102.167587,68.908554 111.569397,70.899628 120.848030,71.755722 
	C127.535164,72.372704 133.265518,70.637634 139.209122,68.617043 
	C140.605652,68.142281 141.970444,67.574158 143.929276,66.828384 
	C145.968079,72.478386 148.835052,77.310577 152.886978,81.619217 
	C155.929871,84.854897 153.010406,97.884857 148.641327,100.354187 
	C144.104004,102.918579 142.147766,106.911606 140.241562,111.090454 
	C135.641205,121.175583 128.865906,128.611496 116.794655,130.664841 
	C120.650116,131.904877 121.050774,131.895233 124.221710,130.611938 
	C132.771530,127.151756 138.048264,120.423019 141.969543,112.483192 
	C143.922211,108.529419 146.153625,105.007919 149.901993,102.446808 
	C152.863708,100.423180 154.922729,97.613480 155.027191,93.733719 
	C155.102707,90.928841 157.387253,89.251251 158.693604,87.049034 
	C158.845154,94.441322 157.735016,101.271759 151.023972,105.876785 
	C149.079346,107.211174 147.552109,109.016205 146.604218,111.206009 
	C141.845490,122.199455 135.531876,131.720367 122.442947,135.801514 
	C127.980911,136.156677 134.421478,132.622360 139.458267,127.028343 
	C141.809311,124.417191 143.851593,121.557465 145.364395,118.387039 
	C147.767136,113.351608 150.875168,109.064255 155.485123,105.658173 
	C160.098267,102.249748 160.376648,96.414726 161.881882,91.357559 
	C162.397308,89.625877 162.675598,87.823601 163.131500,85.736435 
	C164.688278,86.713516 164.920670,87.981186 164.763870,89.203079 
	C163.682053,97.632790 161.391937,105.449280 154.199005,110.986824 
	C150.022736,114.201950 145.763229,128.922073 147.458664,133.936890 
	C147.916229,135.290344 148.832016,137.159348 149.944183,137.513138 
	C157.629761,139.957947 163.190140,146.930786 171.964340,147.218460 
	C179.249191,147.457291 185.261444,151.914749 191.725510,154.768692 
	C193.560059,155.578674 194.022903,157.566711 194.017197,159.473434 
	C194.009964,161.886749 194.552216,164.108627 195.985565,166.055359 
	C199.294373,170.549316 200.524521,175.236679 197.061523,180.619843 
	C195.137329,178.434036 194.343506,175.644455 193.499405,172.939484 
	C189.741699,160.897675 181.497314,153.837067 169.509140,150.475754 
	C161.826447,148.321671 154.340240,145.464706 146.284317,144.874054 
	C143.759460,144.688934 142.116699,142.969162 140.464630,141.305069 
	C139.162735,139.993698 137.884033,138.541367 135.584152,140.316437 
	C139.601700,143.535278 143.937698,146.011810 148.808334,148.433090 
	C144.653595,153.355255 144.870117,158.911087 145.023834,164.359787 
	C145.270126,173.089386 144.871552,181.660660 140.878052,189.676300 
	C139.872299,191.695053 139.167664,193.553558 141.729691,195.216675 
	C143.139114,196.131592 142.755356,197.725586 141.322540,198.467545 
	C132.988052,202.783356 123.462311,204.366745 115.545898,210.884201 
	C114.591576,207.079254 116.727005,205.868546 118.032997,204.405914 
	C120.246048,201.927353 122.591492,199.557175 124.996162,197.261780 
	C128.818680,193.613037 129.665710,189.902115 127.243095,184.778427 
	C123.846825,177.595490 119.907417,170.579971 118.276329,162.199234 
	C121.015717,159.140198 122.380684,155.933792 124.061905,152.949142 
	C125.604698,150.210205 124.855782,148.286209 119.912125,147.309677 
	C124.414185,149.971375 123.633408,152.066925 121.766060,154.648270 
	C120.171890,156.851990 118.242874,159.056717 118.022392,162.028809 
M143.290482,93.570656 
	C145.214615,87.531425 142.611603,82.483749 137.904160,79.839951 
	C134.579956,77.972992 129.750381,72.723053 125.426125,79.470131 
	C125.059860,80.041618 123.564896,80.041603 122.593147,80.045815 
	C119.120384,80.060883 115.715530,80.108017 112.264519,78.978767 
	C94.579086,73.191643 85.865166,87.322235 88.213104,100.603264 
	C89.424278,107.454216 93.645058,111.945816 98.658524,116.362724 
	C109.452942,125.872688 127.778511,123.408211 134.900162,110.874191 
	C137.932266,105.537720 140.347504,99.850769 143.290482,93.570656 
M103.529335,130.083237 
	C106.022812,131.061142 108.487442,132.259521 111.792366,131.308640 
	C96.559326,125.174591 94.481186,123.251083 86.795662,108.887810 
	C85.787613,107.003906 84.758255,104.322250 83.117035,103.728401 
	C76.514503,101.339401 75.450516,96.118591 75.061203,90.254555 
	C75.013779,89.540108 75.116241,88.514961 73.925911,88.393059 
	C72.226234,95.630356 73.848915,100.024658 79.651085,103.412819 
	C82.412636,105.025421 83.926033,107.468636 85.090225,110.307007 
	C88.634155,118.947418 94.518478,125.481216 103.529335,130.083237 
M135.444016,148.320694 
	C134.766617,146.609360 134.648300,144.593292 132.392624,143.436356 
	C138.024338,159.770294 136.687866,176.202118 133.527573,192.710541 
	C134.413437,192.314194 134.671387,191.922440 134.776962,191.493225 
	C138.238281,177.423370 139.439758,163.306122 135.444016,148.320694 
M91.442223,151.646057 
	C85.438301,166.211395 88.791458,180.165909 94.241356,193.971497 
	C94.282341,194.075348 94.816788,193.984390 95.606361,193.984390 
	C94.353394,188.940338 93.464775,183.926865 91.847519,179.160614 
	C88.770699,170.092834 91.293228,161.132141 91.442223,151.646057 
M116.001724,136.755569 
	C112.462555,136.414948 108.923393,136.074310 105.384224,135.733688 
	C109.778847,138.288208 115.504997,138.512100 119.537750,136.828262 
	C118.630737,136.057022 117.660339,136.584518 116.001724,136.755569 
z"/>
<path fill="#000000" opacity="1.000000" stroke="none" 
	d="
M146.686096,67.856178 
	C146.260681,65.760010 145.893921,63.999969 145.442719,61.834717 
	C149.094101,61.813278 152.351883,62.722797 155.781555,59.579918 
	C158.618790,56.979931 159.135651,55.024052 158.314209,52.065117 
	C157.248749,48.227180 155.902634,44.464569 154.599655,40.696392 
	C154.062714,39.143543 153.086243,37.692829 154.038025,35.774139 
	C158.869690,38.169483 161.943100,41.467167 161.165558,47.319183 
	C160.680054,50.973297 162.566330,54.507412 161.912201,58.218105 
	C161.811096,58.791683 162.044678,59.833733 162.433624,60.023495 
	C169.514145,63.477997 165.698471,70.364494 167.520279,75.553940 
	C165.157913,71.066406 154.995224,73.637619 157.715912,64.354942 
	C156.692352,68.181061 152.946564,71.312218 156.512207,75.402893 
	C157.192017,76.182785 157.648209,77.166809 156.815445,78.083244 
	C155.860596,79.134033 154.728378,78.821404 153.639572,78.195175 
	C149.748627,75.957298 147.956024,72.275772 146.686096,67.856178 
z"/>
<path fill="#000000" opacity="1.000000" stroke="none" 
	d="
M100.159019,25.265305 
	C94.018265,25.534201 88.616394,27.389240 83.024353,28.613255 
	C90.179405,22.857208 99.208595,20.942961 107.479393,20.862976 
	C114.121986,20.798738 120.813248,25.766321 127.440247,28.483585 
	C126.365311,31.720436 124.671791,31.626080 123.269913,30.435410 
	C118.322128,26.233055 113.039047,26.286755 107.418289,28.689415 
	C106.999428,28.868467 106.444748,28.753441 105.955536,28.728823 
	C105.821274,28.722067 105.695480,28.547279 105.482925,28.387175 
	C105.878365,24.957737 110.965599,27.194315 111.392418,23.485970 
	C107.325104,21.630085 104.348137,26.174042 100.159019,25.265305 
z"/>
<path fill="#000000" opacity="1.000000" stroke="none" 
	d="
M133.925873,30.512695 
	C128.555237,27.025675 124.204597,22.517851 117.502762,22.212076 
	C123.674667,18.814148 148.361969,28.143747 151.048492,35.383041 
	C145.230225,32.105648 139.649002,31.931168 133.925873,30.512695 
z"/>
<path fill="#000000" opacity="1.000000" stroke="none" 
	d="
M168.066238,153.108734 
	C175.473267,152.528778 180.255936,157.107758 184.659225,161.961899 
	C186.676987,164.186234 188.614807,166.786606 189.666565,170.884308 
	C183.759033,169.951111 179.173233,167.451813 176.993134,163.095596 
	C175.055267,159.223450 172.794189,156.645966 168.995209,155.037506 
	C168.519806,154.836227 168.327347,153.966644 168.066238,153.108734 
z"/>
<path fill="#000000" opacity="1.000000" stroke="none" 
	d="
M36.462746,167.444717 
	C35.236115,170.389664 34.255005,173.033066 33.084080,175.589493 
	C32.392548,177.099289 32.491459,179.842957 29.937407,179.261292 
	C27.534328,178.714020 28.293436,176.445053 28.571003,174.650604 
	C29.666353,167.569305 33.754730,162.312546 38.975616,157.815414 
	C40.563564,156.447601 42.491489,155.474487 44.726192,154.666702 
	C42.000378,158.835373 38.105759,162.226639 36.462746,167.444717 
z"/>
<path fill="#000000" opacity="1.000000" stroke="none" 
	d="
M40.603573,165.562439 
	C42.745640,161.212540 45.533741,158.068527 50.593266,155.904343 
	C49.229881,163.705750 45.515755,168.386932 39.043247,171.365723 
	C38.160275,169.070312 40.056618,167.650085 40.603573,165.562439 
z"/>
<path fill="#000000" opacity="1.000000" stroke="none" 
	d="
M142.810059,36.406208 
	C148.071274,35.653214 153.462585,41.122746 153.101334,46.674549 
	C146.067825,46.085289 145.454819,45.484058 142.810059,36.406208 
z"/>
<path fill="#000000" opacity="1.000000" stroke="none" 
	d="
M40.341400,183.778015 
	C38.981071,186.321274 37.621113,188.621872 35.988815,191.383179 
	C34.362915,188.726456 33.446564,186.331299 35.309013,183.895752 
	C36.646069,182.147263 38.541294,181.968231 40.341400,183.778015 
z"/>
</svg>