<svg version="1.1" id="Layer_1" xmlns="http://www.w3.org/2000/svg" xmlns:xlink="http://www.w3.org/1999/xlink" x="0px" y="0px"
	 width="100%" viewBox="0 0 272 224" enable-background="new 0 0 272 224" xml:space="preserve">
<path fill="#000000" opacity="1.000000" stroke="none" 
	d="
M150.468536,225.000000 
	C142.719910,222.714020 135.054901,222.002686 127.907112,219.029556 
	C113.655823,213.101746 102.260414,203.606964 92.960220,191.566025 
	C88.020790,185.170959 87.774841,177.206711 88.067505,169.567078 
	C88.430290,160.096954 89.857864,150.688416 92.779083,141.608490 
	C94.165756,137.298340 93.634438,133.478546 92.195076,129.091019 
	C86.159081,110.691910 88.381538,92.951698 98.424309,76.384186 
	C100.319855,73.257126 101.141922,70.470436 101.053261,66.718056 
	C100.474991,42.242611 113.369751,20.796976 135.033142,13.957518 
	C143.913467,11.153870 152.489273,12.025360 160.209900,17.726929 
	C161.552856,18.718699 162.850143,19.515903 164.639694,19.752743 
	C176.909454,21.376602 184.283203,33.963833 179.480759,45.224091 
	C178.631027,47.216427 179.295013,48.288605 180.299088,49.666615 
	C182.229996,52.316532 182.644272,55.206989 181.012772,58.111637 
	C179.181580,61.371815 178.652573,64.624413 180.161026,68.322182 
	C176.301804,66.909439 175.570496,63.748154 175.829910,59.350288 
	C172.951920,66.025414 169.926727,71.699898 167.657303,77.785316 
	C163.815720,88.086395 151.745026,93.980644 143.536575,90.164825 
	C140.797119,88.891365 139.698105,90.174759 138.734909,92.572144 
	C134.852905,102.234596 137.276978,109.549210 146.399490,114.454788 
	C150.350006,116.579155 154.527939,118.281784 158.608749,120.162567 
	C173.054657,126.820435 175.075394,133.279007 166.684433,146.995850 
	C181.332977,155.490570 194.960526,165.969254 194.932037,184.377563 
	C194.905777,201.350983 187.968369,216.212082 171.241577,224.761444 
	C164.312363,225.000000 157.624710,225.000000 150.468536,225.000000 
M173.105881,211.084473 
	C179.947784,203.436783 183.642746,194.689529 183.003998,184.223892 
	C181.930069,166.627701 170.779816,156.228928 156.534592,147.821869 
	C158.700409,144.943573 160.635834,142.668640 162.239975,140.180130 
	C166.022385,134.312515 165.578506,131.750748 159.963821,127.623657 
	C155.271591,124.174606 150.458664,120.883316 145.616135,117.646439 
	C134.639038,110.309067 130.953537,100.473572 135.158218,87.833389 
	C136.089554,85.033592 136.200027,82.348015 133.610443,79.594948 
	C127.857162,88.601028 119.791740,94.702568 110.606400,99.156082 
	C105.234962,101.760422 103.017075,105.893272 102.357201,111.259453 
	C101.952370,114.551559 101.710838,117.936493 101.997543,121.227325 
	C102.875381,131.303192 101.765488,141.114410 99.095131,150.837082 
	C97.996750,154.836243 97.205353,158.948898 96.642899,163.060364 
	C95.195877,173.637711 96.118179,183.642471 103.868332,192.021912 
	C121.694725,211.295700 143.719284,219.646576 169.788040,217.704041 
	C174.350784,217.364029 177.349976,214.868118 180.036514,210.842636 
	C177.409073,211.854309 175.455200,212.902374 173.374771,213.320175 
	C171.490448,213.698593 172.282654,212.402939 173.105881,211.084473 
M108.175911,78.605064 
	C107.589966,83.311569 108.872711,88.168060 106.726082,92.906151 
	C105.643661,90.015503 104.561241,87.124855 103.217079,83.535210 
	C92.278542,95.959389 92.645767,110.259460 93.528664,124.660637 
	C93.716736,124.032249 93.745651,123.379463 93.712425,122.729866 
	C93.155472,111.843117 96.730034,103.472481 106.905624,97.995766 
	C115.067024,93.603134 121.415215,86.891754 125.972572,78.689590 
	C126.970604,76.893349 128.280136,75.119942 127.862885,72.767082 
	C121.500816,73.668839 117.122078,77.753883 112.206558,81.046356 
	C113.263657,74.502045 117.284584,70.253136 122.233765,66.827950 
	C128.891327,62.220432 136.589447,59.942921 144.225311,57.578510 
	C151.846191,55.218746 159.681900,53.431549 166.827225,49.753323 
	C173.077286,46.535973 174.558289,43.486557 172.776917,38.441959 
	C170.123016,30.926483 164.998444,27.142193 158.798538,28.489580 
	C152.218201,29.919645 146.219879,32.718044 140.894012,36.925800 
	C139.703735,37.866188 138.914185,39.724270 136.234940,39.069832 
	C140.297714,31.883146 147.014862,28.510065 154.085754,25.239679 
	C147.586594,22.175171 138.891541,23.741312 131.528931,29.399305 
	C115.713379,41.553185 109.541626,58.448009 108.175911,78.605064 
M150.868454,85.691734 
	C155.972382,84.356987 160.743164,81.487976 162.317947,76.803497 
	C164.852554,69.263817 170.022034,62.977421 171.731476,55.180645 
	C171.921661,54.313236 172.810654,53.431599 171.790314,52.209286 
	C169.109161,54.711864 166.304214,56.981094 163.092300,58.771912 
	C159.991302,60.500893 156.300140,61.233383 153.919495,63.550758 
	C154.051575,67.400620 159.550980,65.365868 159.334396,69.341248 
	C156.905731,70.484230 154.298492,69.709023 153.262497,68.227234 
	C149.871902,63.377678 146.196381,65.904427 142.453369,67.109856 
	C136.191406,69.126511 134.465775,73.123398 137.521484,78.874573 
	C140.172791,83.864639 144.064774,86.794250 150.868454,85.691734 
z"/>
<path fill="#000000" opacity="1.000000" stroke="none" 
	d="
M115.179741,163.397934 
	C118.310600,152.630035 121.634018,142.335281 124.220207,131.858551 
	C126.419029,122.951088 128.177765,113.788788 120.937553,105.727699 
	C126.189522,105.379005 129.926834,108.688087 131.282333,114.459343 
	C133.394089,123.450531 130.891327,131.967621 128.277359,140.370956 
	C124.675423,151.950394 120.739487,163.426987 116.861946,174.919067 
	C115.525002,178.881439 115.482468,181.791626 120.485954,183.195267 
	C124.357399,184.281311 127.337952,187.273087 130.364212,189.844635 
	C135.430847,194.150024 140.251480,198.744461 145.187103,203.204605 
	C150.002899,207.556458 155.666702,210.570557 162.789902,213.379181 
	C157.561859,215.151260 154.078552,213.438660 150.721298,211.998322 
	C142.349472,208.406647 135.599991,202.406052 128.683014,196.668411 
	C122.425041,191.477402 116.367699,185.914215 106.720406,184.448120 
	C116.244537,179.541733 111.779099,170.329468 115.179741,163.397934 
z"/>
</svg>