<svg version="1.1" id="Layer_1" xmlns="http://www.w3.org/2000/svg" xmlns:xlink="http://www.w3.org/1999/xlink" x="0px" y="0px"
	 width="100%" viewBox="0 0 1024 1024" enable-background="new 0 0 1024 1024" xml:space="preserve">
<path fill="#000000" opacity="1.000000" stroke="none" 
	d="
M324.533752,356.561157 
	C326.834869,347.279449 322.688599,340.873077 317.695190,333.822784 
	C305.641937,316.804626 299.409973,297.440643 297.549225,276.579529 
	C296.209167,261.555817 295.763794,246.744888 300.516052,232.138748 
	C307.567505,210.465744 321.263031,193.583817 338.509979,179.364609 
	C342.926208,175.723679 346.053589,172.046173 347.218414,166.224503 
	C348.732849,158.655624 353.484589,153.055679 360.558014,149.733368 
	C369.657776,145.459320 379.254913,143.762650 389.250610,145.024399 
	C398.648590,146.210693 403.701782,141.444504 402.556244,132.117004 
	C402.313324,130.139206 401.968506,128.142776 401.377716,126.246185 
	C400.485168,123.380936 400.904480,121.000534 403.289337,119.085403 
	C405.668823,117.174568 407.939331,118.190262 410.279755,119.277481 
	C422.009338,124.726395 430.471252,133.493805 435.102448,145.425125 
	C437.038910,150.413956 439.772858,152.364609 444.767242,153.695404 
	C484.149261,164.189072 510.950958,188.693253 525.040771,226.993912 
	C526.994507,232.304749 529.069702,237.584747 530.706909,242.994553 
	C532.638428,249.376801 535.698547,255.148453 540.545593,259.566437 
	C557.122375,274.675690 561.012878,294.753448 562.917053,315.600891 
	C563.220642,318.924042 563.952271,321.633026 566.039429,324.241425 
	C568.630554,327.479584 571.007996,330.925262 573.152649,334.477600 
	C580.851746,347.230072 580.600830,358.223877 569.762024,368.494232 
	C562.690674,375.194702 561.439392,381.449219 564.372498,389.766144 
	C564.865967,391.165405 565.061157,392.677399 565.321533,394.150146 
	C567.157104,404.529510 568.595215,405.712433 580.471680,406.087860 
	C580.982178,399.044952 580.323303,391.895691 581.600891,384.862854 
	C583.670410,373.470734 587.564514,362.985352 596.086914,354.800385 
	C605.783691,345.487457 617.425964,343.168152 630.322571,345.911377 
	C641.736450,348.339172 653.040283,351.178833 663.593262,356.289276 
	C667.247681,358.058960 668.781738,357.062744 670.348572,353.528442 
	C672.689392,348.248169 675.489380,343.249481 679.856689,339.086700 
	C690.565247,328.879669 703.161438,330.521179 713.890930,338.500305 
	C723.618591,345.734436 727.523438,356.264008 729.260803,367.777313 
	C732.150330,386.925537 728.915161,405.251801 721.146057,422.787811 
	C719.341003,426.862183 719.535400,429.132690 723.307617,431.868866 
	C731.084412,437.509857 738.443115,443.727173 746.019531,449.743652 
	C749.340271,447.349457 751.231567,444.153046 753.608459,441.429993 
	C758.680542,435.619385 764.134338,430.297699 771.023315,426.657990 
	C783.916260,419.846161 797.139526,425.358826 801.779297,439.281281 
	C805.220215,449.606354 803.744751,459.752289 800.582397,469.665649 
	C794.582153,488.475098 782.881836,503.443756 767.829285,515.884583 
	C761.917542,520.770569 756.360046,521.784912 744.797546,520.980103 
	C743.558655,525.190796 745.902222,529.013550 746.487549,532.938721 
	C748.760803,548.182861 747.197021,562.817688 740.633179,576.791321 
	C732.582336,593.930664 720.697266,607.844604 704.574585,617.837097 
	C683.968933,630.608032 661.766418,631.803711 638.640381,626.525818 
	C621.037292,622.508362 605.712891,613.998901 591.463074,603.380798 
	C581.161316,595.704590 570.507812,589.211365 558.321655,584.526184 
	C525.217468,571.798950 497.135803,551.017212 471.278076,527.091003 
	C454.688080,511.740295 439.458313,495.240234 429.611694,474.579163 
	C421.689850,457.956757 419.054657,440.926270 427.695587,423.644348 
	C429.466461,420.102570 431.911438,416.897797 434.051971,413.527893 
	C433.732269,411.945770 432.304291,412.151031 431.280731,411.962921 
	C412.840759,408.573608 396.811157,399.930939 381.758087,389.208771 
	C379.722260,387.758636 377.732361,386.995392 375.274658,387.369476 
	C364.460480,389.015381 353.902313,387.888672 344.186646,382.887878 
	C333.671051,377.475372 326.161072,369.352142 324.533752,356.561157 
M390.121765,381.641937 
	C401.379242,390.218811 413.704651,396.784943 427.499542,400.039673 
	C436.643494,402.197021 445.891663,404.517914 455.135132,399.242432 
	C458.783844,397.159943 463.462097,396.212952 467.751587,396.896942 
	C474.673889,398.000793 480.473022,395.223877 486.377502,392.619171 
	C490.028656,391.008484 493.388062,388.685944 497.106445,387.290436 
	C502.191681,385.381958 503.044098,380.769653 505.370178,376.790588 
	C508.691223,371.109619 504.887115,368.304596 502.179016,364.754211 
	C499.436584,361.158691 497.312592,357.210510 495.439392,353.103027 
	C494.383759,350.788269 494.260529,348.014343 492.200836,345.828522 
	C488.491821,349.379944 484.822845,352.491241 480.442505,354.611420 
	C477.522400,356.024780 474.892334,355.845978 473.020599,352.932983 
	C471.070801,349.898438 472.184113,347.189148 474.965576,345.716888 
	C482.445007,341.757996 486.883148,335.237122 490.665192,328.097290 
	C494.174591,321.472107 499.926086,318.867279 507.067352,318.658356 
	C509.396881,318.590179 511.733154,318.634583 514.062744,318.722229 
	C515.933838,318.792572 517.037598,318.089661 517.973389,316.353119 
	C524.466003,304.304962 534.766174,301.237701 547.169983,307.437866 
	C548.367859,308.036652 549.421875,309.508728 551.124023,308.676849 
	C551.136169,303.019104 549.120300,297.865784 548.003113,292.522736 
	C544.285034,274.741150 531.310913,265.338654 516.815369,257.226074 
	C514.482849,255.920654 511.903748,255.984451 509.150452,256.848236 
	C509.634644,257.509491 509.787598,257.819489 510.027405,258.031128 
	C515.824402,263.147797 516.760803,269.093384 512.735291,275.305847 
	C508.726593,281.492340 502.875031,282.964539 495.840851,279.522522 
	C494.797211,279.011841 493.857178,278.423096 492.580811,278.511383 
	C486.263641,278.948456 485.081116,277.748169 485.845459,271.433350 
	C487.876068,254.656799 504.106903,241.926392 518.022400,246.507584 
	C518.532593,246.675537 519.214783,246.321198 519.795532,246.214203 
	C516.223694,210.737915 470.198669,163.799469 439.590424,164.444885 
	C439.474915,165.197159 439.299622,165.990250 439.237946,166.792068 
	C437.853058,184.797272 427.959839,196.501160 411.927795,203.633850 
	C407.975494,205.392242 404.019379,207.202408 399.572266,207.329987 
	C396.654327,207.413696 394.770111,206.016754 394.165924,203.189987 
	C393.586060,200.477005 395.010315,198.653824 397.382446,197.669312 
	C399.991943,196.586258 402.712738,195.773819 405.372681,194.809448 
	C434.092163,184.397110 432.524109,155.709000 418.558136,139.167892 
	C417.483276,137.894882 416.544830,136.026413 414.329803,136.278992 
	C408.227722,154.128922 403.530975,157.068100 384.020905,155.646652 
	C379.857269,155.343307 375.727051,156.087952 371.681549,157.133621 
	C361.686829,159.717010 356.791595,165.614151 356.266907,175.950333 
	C356.064575,179.936798 356.146210,183.941208 356.201080,187.936020 
	C356.238647,190.669907 355.493896,193.018265 352.805023,194.023193 
	C350.032501,195.059402 347.559143,194.420883 345.875854,191.721878 
	C345.364899,190.902664 344.991272,189.873856 343.684418,189.791245 
	C343.305176,189.972565 342.786072,190.097778 342.432556,190.410309 
	C340.561401,192.064407 338.669556,193.702774 336.897949,195.460526 
	C323.435883,208.816940 312.666840,223.787994 308.721741,242.809677 
	C306.357330,254.209961 306.970856,265.657562 308.217316,277.112793 
	C310.521240,298.285706 317.702606,317.488251 331.076752,334.252594 
	C333.094788,336.782196 335.040955,337.807404 338.269623,336.587982 
	C341.694550,335.294434 345.344055,334.609344 349.050385,334.811768 
	C352.344818,334.991730 355.059357,336.244995 355.171051,340.016418 
	C355.284943,343.862244 352.673584,345.116486 349.289368,345.304199 
	C347.794189,345.387177 346.272583,345.331207 344.809174,345.594757 
	C335.296265,347.307831 332.748474,352.707886 336.892548,361.469025 
	C342.978058,374.334473 360.226410,378.944397 371.986450,377.144012 
	C375.343719,376.630035 378.895813,376.211884 381.212708,372.749969 
	C378.260681,370.007263 375.019653,368.451935 371.628326,367.032257 
	C364.450043,364.027252 356.779510,363.521423 349.234894,362.396088 
	C345.821106,361.886932 343.475464,360.546478 343.712494,356.725647 
	C343.951477,352.873749 346.623291,351.798798 349.947540,351.760437 
	C351.606018,351.741272 353.291656,351.790863 354.922638,352.063171 
	C363.135986,353.434357 371.177032,355.297272 378.953766,358.503021 
	C391.061584,363.494080 393.900787,368.963623 390.121765,381.641937 
M561.543762,362.027313 
	C565.233032,357.259125 569.482056,352.495331 566.758728,345.857117 
	C561.614929,333.318542 553.320190,323.253967 541.435486,316.611908 
	C534.529419,312.752258 529.609009,314.973389 527.338257,322.494720 
	C525.703735,327.908630 522.518127,331.067200 516.804382,331.545563 
	C514.491577,331.739227 512.168762,332.372253 509.885162,332.233765 
	C505.790192,331.985474 504.124878,334.223114 503.526459,337.719330 
	C503.102325,340.197205 503.387146,342.645111 504.029480,345.123322 
	C506.202789,353.508545 511.495178,359.907837 517.158142,366.054688 
	C519.787354,368.908478 520.331421,371.557617 518.042603,374.962646 
	C515.241516,379.129791 513.639282,383.885803 512.288818,388.722626 
	C507.911774,404.399139 508.853363,420.395874 509.302032,436.368713 
	C509.508545,443.719666 508.019958,445.597412 500.410034,447.508850 
	C498.750336,443.262970 498.806274,438.779480 498.648529,434.329834 
	C498.524658,430.835785 499.070892,426.726135 496.994720,424.131165 
	C489.250488,414.451569 479.580200,407.105469 466.552338,407.593597 
	C450.137909,408.208649 434.092377,425.726776 433.174286,442.128815 
	C432.293976,457.855957 438.624695,470.997375 446.878754,483.528442 
	C457.501587,499.655670 471.018036,513.203186 485.502594,525.825317 
	C511.184418,548.205078 539.052856,566.995178 571.461243,578.437927 
	C575.172180,579.748108 577.760254,579.211060 580.377197,576.591309 
	C586.142822,570.819458 592.227966,565.347168 597.739685,559.345764 
	C607.453918,548.768494 616.480042,537.657837 621.458984,523.866272 
	C622.410645,521.229980 622.449707,518.924622 621.174988,516.254395 
	C615.652649,504.686493 610.314575,493.022675 606.080872,480.904663 
	C600.163208,463.966095 595.931335,446.738342 598.255981,428.579437 
	C598.605042,425.852539 596.967407,425.096954 595.184998,424.161224 
	C588.364685,420.580627 581.130920,418.103302 573.703430,416.156433 
	C568.457886,414.781525 568.041992,415.077271 568.105469,420.713196 
	C568.199402,429.054321 567.869263,437.355988 566.235168,445.560303 
	C560.762878,473.036163 544.085632,487.566742 516.454468,489.454102 
	C497.506348,490.748413 479.409088,486.783173 461.506317,481.382690 
	C455.000458,479.420166 452.656189,476.708130 454.216125,473.321350 
	C456.772247,467.771820 461.085205,470.175842 464.954834,471.455627 
	C482.372101,477.216125 500.178406,480.227722 518.542847,478.640991 
	C530.609009,477.598389 541.297852,473.525391 548.372253,462.905334 
	C555.386719,452.375183 557.072937,440.264893 557.535095,428.112640 
	C558.171082,411.388214 555.618286,394.936859 550.828674,378.890320 
	C549.623596,374.853027 550.182434,371.944122 553.816589,369.393494 
	C556.507263,367.505035 558.667419,364.860687 561.543762,362.027313 
M708.045410,433.452789 
	C693.218811,423.647827 676.980103,416.696625 660.400269,410.635376 
	C651.217773,407.278442 641.682190,404.796722 631.627991,405.309204 
	C621.605103,405.820129 614.540039,410.454071 611.121155,419.936798 
	C606.675598,432.267120 607.704285,444.917389 610.317261,457.363190 
	C613.926270,474.553436 620.909485,490.587189 628.047913,506.573975 
	C630.181091,511.351196 632.276062,512.443176 637.350525,511.342499 
	C660.448181,506.332550 683.761475,504.722778 707.244690,508.562073 
	C713.014587,509.505402 718.765564,510.563660 725.577454,511.752716 
	C720.534363,504.713531 715.373840,499.332703 710.059692,494.116119 
	C700.552490,484.783539 690.690247,475.830658 680.550964,467.186493 
	C678.519958,465.454956 677.163452,463.459076 677.985840,460.657104 
	C678.566895,458.677673 680.165344,457.743774 682.037231,457.366608 
	C684.620605,456.846069 686.526855,458.331329 688.264648,459.904022 
	C705.558228,475.555695 723.944153,489.912811 741.662170,505.057617 
	C749.048401,511.371094 753.534180,514.485107 764.213074,504.944031 
	C776.793579,493.703888 786.577209,480.285919 791.222290,463.727051 
	C793.084778,457.087708 793.795349,450.236115 791.758362,443.523834 
	C789.086914,434.721405 782.680481,432.307709 774.785339,436.846039 
	C771.890259,438.510193 769.275635,440.573914 766.899536,442.936829 
	C761.208374,448.596466 756.348022,454.917847 751.763977,461.489929 
	C749.117676,465.283844 745.436707,465.706604 742.556824,462.511749 
	C732.548096,451.408081 720.264282,443.033691 708.045410,433.452789 
M610.957275,560.429443 
	C603.475647,569.521118 594.765198,577.453247 586.300354,585.649841 
	C588.767456,589.054077 591.995483,590.612427 594.731262,592.694519 
	C612.772217,606.424683 632.465759,616.277283 655.436584,618.608276 
	C702.521423,623.386292 744.188904,578.324646 735.557556,531.930420 
	C734.829163,528.015015 732.918762,526.009766 729.163208,524.708862 
	C698.380249,514.046021 667.321716,515.603577 636.102661,522.220520 
	C634.206482,522.622437 632.786743,523.315002 632.098999,525.406982 
	C627.810547,538.450256 620.030029,549.424255 610.957275,560.429443 
M714.291016,411.803680 
	C717.473511,402.976593 719.018555,393.770844 719.500977,384.493103 
	C720.092712,373.111481 719.630493,361.479370 712.334229,352.044098 
	C703.280273,340.335724 690.382324,337.762848 682.015320,353.772675 
	C680.563293,356.551117 679.359863,359.518188 678.479309,362.526276 
	C674.777344,375.172058 675.483582,387.731781 679.193848,400.308472 
	C680.587646,405.033295 682.512817,408.486389 687.466858,410.530792 
	C695.062805,413.665375 702.292175,417.688293 709.635986,421.313934 
	C712.171509,418.570465 712.738220,415.378052 714.291016,411.803680 
M626.337036,356.254150 
	C610.850037,354.722534 602.441345,359.430573 595.950195,373.798950 
	C591.098389,384.538605 590.588623,395.989807 591.443176,407.543549 
	C591.815552,412.578369 596.439026,413.025665 599.770386,414.244843 
	C602.512390,415.248383 602.853210,411.850769 603.840576,410.149109 
	C606.503906,405.559204 610.112366,402.031586 614.686951,399.379395 
	C616.197998,398.503326 618.191467,398.224304 619.221558,395.999451 
	C615.552856,392.541962 611.685913,389.077881 609.866516,384.080200 
	C608.679504,380.819397 609.184265,378.010986 612.539368,376.553162 
	C615.717773,375.172119 618.010681,376.750214 619.414001,379.638153 
	C620.445312,381.760559 621.760803,383.570312 623.459351,385.247742 
	C629.458984,391.172729 636.386292,394.836700 644.911011,395.790771 
	C652.921082,396.687256 660.501709,399.708588 669.282104,402.422638 
	C665.126526,391.945190 665.521790,382.129364 665.783447,372.342438 
	C665.854980,369.666229 664.979675,368.119568 662.407471,367.006348 
	C651.068542,362.098877 639.404846,358.339294 626.337036,356.254150 
M495.001434,407.374390 
	C496.032257,407.961884 496.711517,409.576050 498.557495,408.394928 
	C498.719604,405.334900 498.887878,402.158875 499.087952,398.382538 
	C495.492767,400.131104 492.348816,400.913971 489.836273,403.487061 
	C491.597107,404.794800 493.043152,405.868744 495.001434,407.374390 
M504.787506,268.656311 
	C506.840790,268.834656 508.395477,268.238098 508.602234,265.923920 
	C508.751801,264.249603 507.873901,263.078918 506.313599,262.572296 
	C504.882233,262.107513 503.694885,262.766968 502.953979,263.952942 
	C501.811920,265.780975 502.145386,267.365509 504.787506,268.656311 
z"/>
<path fill="#000000" opacity="1.000000" stroke="none" 
	d="
M783.281494,675.129272 
	C803.969727,668.243835 824.493164,665.020996 845.218567,672.914368 
	C854.850464,676.582642 862.195862,683.234314 866.995544,692.549744 
	C868.951294,696.345459 868.478882,699.381226 865.437317,702.437805 
	C858.857605,709.049988 852.547180,715.929932 845.976196,722.551025 
	C843.932129,724.610718 843.047180,726.695007 843.210693,729.623901 
	C843.749329,739.270508 840.625977,747.276001 833.437073,754.185913 
	C794.627136,791.489807 755.511292,828.447876 712.117371,860.480164 
	C696.184998,872.241028 679.965332,883.823059 660.242737,888.773865 
	C643.753723,892.912964 626.944458,895.157043 610.112915,897.352905 
	C591.295410,899.807983 572.396667,901.385254 553.502380,902.975708 
	C537.252197,904.343445 520.963196,905.282776 504.680573,906.223938 
	C490.888184,907.021179 477.065887,907.340149 463.285095,908.283569 
	C456.096741,908.775696 449.837921,906.811768 443.874695,903.176697 
	C403.505524,878.569031 365.665497,850.588745 330.756104,818.661316 
	C319.910889,808.742432 310.668335,797.307007 300.247681,787.017090 
	C281.627594,768.630737 259.080017,756.672485 234.483902,748.352173 
	C222.330078,744.240906 209.969376,740.905945 197.204224,739.265808 
	C193.961380,738.849182 191.605545,737.103088 192.056519,733.756226 
	C192.566299,729.972839 195.773773,729.369385 198.987808,729.829773 
	C209.219635,731.295410 219.256638,733.683167 229.154861,736.633484 
	C256.774933,744.865906 282.318207,757.089111 303.701477,776.784851 
	C315.091614,787.276123 324.559082,799.671631 335.934662,810.236145 
	C362.246857,834.672485 390.747955,856.300964 420.352417,876.523438 
	C428.599579,882.156982 437.233154,887.230774 445.406555,892.964600 
	C452.804443,898.154419 460.808380,899.255066 469.547913,898.625244 
	C485.812225,897.453186 502.104095,896.655151 518.388062,895.766907 
	C544.475342,894.344055 570.469971,891.945251 596.456970,889.236389 
	C615.674744,887.233032 634.721680,884.410339 653.643921,880.639038 
	C665.238953,878.328064 675.615112,873.072876 685.587158,866.896973 
	C708.473022,852.723206 729.228577,835.727905 749.601501,818.273071 
	C776.302917,795.396301 802.012207,771.424683 827.047852,746.734253 
	C829.059021,744.750854 831.120239,742.845276 832.204041,740.085144 
	C837.133606,727.531067 830.697571,718.357361 816.691406,717.236145 
	C800.091553,715.907349 785.616028,721.409546 771.831726,729.834229 
	C755.627197,739.737915 741.660034,752.294312 728.820435,766.143677 
	C725.884338,769.310791 722.598633,770.735229 718.471313,771.370300 
	C710.617981,772.578552 702.826355,774.187622 695.072754,775.618469 
	C694.596313,778.115417 696.384583,779.229736 697.213135,780.764648 
	C704.941284,795.081299 706.162354,809.665161 697.596497,823.898682 
	C691.655273,833.770996 681.292725,837.172302 670.642700,839.299072 
	C650.338440,843.353943 629.934998,842.221985 609.468933,840.505005 
	C591.373840,838.987000 573.410400,836.941833 555.785156,832.416443 
	C542.096436,828.901733 529.675903,822.271484 517.394165,815.747253 
	C486.947754,799.573730 453.814026,792.465942 420.627350,785.293030 
	C401.562103,781.172302 382.231018,778.971191 362.817352,777.433716 
	C359.337708,777.158081 356.642212,776.003601 357.026947,772.221985 
	C357.422180,768.337158 360.622162,768.071106 363.871521,768.252808 
	C403.986694,770.496277 442.751221,779.637695 481.266815,790.488159 
	C499.109589,795.514648 515.332825,803.972595 531.554504,812.299866 
	C551.525696,822.552002 572.639160,827.349426 594.633057,829.773682 
	C610.373596,831.508606 626.154663,832.426819 641.963379,832.564819 
	C652.770447,832.659058 663.577087,831.938843 674.056885,828.775635 
	C692.313110,823.265259 696.276001,810.690735 692.354004,794.098267 
	C691.283630,789.569946 685.985352,787.579712 681.838623,785.694702 
	C674.013306,782.137573 665.481018,781.246582 657.046875,780.428162 
	C651.099304,779.851074 645.139954,779.163879 639.110596,779.361084 
	C628.961731,779.693054 624.836670,782.453491 621.838013,791.983643 
	C620.379639,796.618286 619.897034,801.464417 620.512512,806.317383 
	C621.508484,814.170837 625.569336,819.566772 633.418030,821.700867 
	C636.620544,822.571533 639.393250,824.055542 638.145935,827.878174 
	C636.893433,831.716431 633.540405,831.769897 630.238831,830.815857 
	C616.645264,826.887756 608.697266,813.123474 611.002075,797.583374 
	C611.270447,795.773743 611.550415,793.961731 611.932190,792.173645 
	C615.126221,777.213318 623.289185,770.435669 638.840027,769.967957 
	C650.208191,769.625916 661.408752,771.244141 672.577515,773.128296 
	C673.861694,773.344910 675.161438,773.469238 677.744202,773.803040 
	C671.173767,767.416931 664.621826,763.026306 657.870667,758.992493 
	C633.622559,744.504395 607.297546,736.329163 579.274292,733.185791 
	C535.248535,728.247437 496.319214,710.962646 461.387024,684.087646 
	C458.273712,681.692505 456.972565,678.324158 455.351257,675.079163 
	C442.652863,649.664185 426.564148,626.715942 405.611084,607.404419 
	C374.844788,579.048401 338.394836,562.412476 297.357452,555.271057 
	C259.142853,548.620789 221.106216,550.227539 183.179062,557.440430 
	C177.138840,558.589172 171.177872,560.182068 165.218887,561.719421 
	C161.950287,562.562622 159.012405,562.568542 157.963593,558.768555 
	C156.939453,555.057861 159.812195,553.729065 162.613602,552.888977 
	C175.549515,549.009644 188.839340,546.819641 202.148972,544.703003 
	C221.314819,541.655090 240.631439,541.196106 259.941742,541.809265 
	C291.323303,542.805725 321.715088,548.908936 350.698090,561.254456 
	C354.603821,562.918091 358.755859,563.209290 362.758148,564.295410 
	C393.049896,572.516602 419.332092,588.279297 443.975403,607.151062 
	C463.847626,622.369080 481.405060,640.247192 500.428650,656.443298 
	C519.839783,672.969299 539.602722,689.043030 560.477661,703.708374 
	C567.117798,708.373413 575.080444,709.184143 582.596741,711.076050 
	C608.581909,717.616638 634.784546,723.200989 661.296570,727.175537 
	C671.334717,728.680359 681.477051,729.299561 691.626770,729.753540 
	C695.754456,729.938171 698.906860,728.542114 702.014099,725.912781 
	C721.389771,709.516663 741.759155,694.523499 764.591370,683.203674 
	C770.546387,680.251282 776.801270,677.903687 783.281494,675.129272 
M692.282410,747.130554 
	C680.648254,748.079895 669.007874,746.802368 657.285706,747.023621 
	C666.703003,752.997742 675.851379,759.029297 684.128418,766.271362 
	C685.644531,767.597961 687.145264,767.164124 688.797424,766.864990 
	C698.281433,765.147766 707.762146,763.404114 717.275574,761.864319 
	C719.630310,761.483154 721.216064,760.310669 722.694275,758.673218 
	C729.177734,751.491211 736.246277,744.909119 743.633057,738.683105 
	C759.155762,725.599792 775.672729,714.117004 795.848694,709.472290 
	C809.635193,706.298462 823.304932,706.075195 835.661377,714.624695 
	C838.018066,716.255310 839.597412,715.494934 841.271301,713.719360 
	C845.953674,708.752686 850.579102,703.725464 855.429565,698.926941 
	C857.924438,696.458862 857.497742,694.499573 855.484924,692.090637 
	C848.353699,683.555725 839.116577,679.286316 828.197937,678.279236 
	C807.247620,676.347168 787.986023,682.056091 769.550476,691.342529 
	C741.047058,705.700317 716.256897,725.213745 692.282410,747.130554 
M563.922363,721.528809 
	C566.554260,721.927185 569.177124,722.402588 571.819458,722.711243 
	C588.018677,724.603516 604.406433,726.037476 619.700745,731.973877 
	C632.769043,737.046265 646.139893,736.381042 659.570862,736.622925 
	C655.492676,735.834229 651.376526,735.317017 647.293152,734.610413 
	C623.185059,730.438477 599.355835,724.974121 575.583435,719.222412 
	C565.944031,716.890137 557.119446,713.356201 548.971741,707.359558 
	C522.774658,688.078857 497.884521,667.249451 473.841675,645.392090 
	C455.959503,629.135498 438.096985,612.889343 417.561646,599.933899 
	C414.885803,598.245789 412.225006,596.528625 409.488831,594.942993 
	C406.940094,593.465942 404.300049,592.146484 401.700195,590.757629 
	C428.547394,613.760071 449.360046,641.098877 464.614838,672.741577 
	C465.735474,675.066101 467.511444,676.739014 469.535492,678.275818 
	C497.541779,699.540771 528.561035,714.243835 563.922363,721.528809 
z"/>
<path fill="#000000" opacity="1.000000" stroke="none" 
	d="
M922.180969,61.176018 
	C927.170288,55.829281 932.693970,51.537891 937.222839,46.202507 
	C940.984192,41.771362 946.818787,40.611504 952.234070,43.230614 
	C955.294922,44.710995 958.032104,45.086025 961.296265,44.081524 
	C965.610596,42.753857 969.556396,44.016739 972.752625,47.155262 
	C979.040649,53.329647 985.314209,59.522350 991.452637,65.844543 
	C998.075439,72.665695 998.041870,78.106621 991.459656,84.786942 
	C978.533081,97.906479 965.593994,111.014099 952.590027,124.056793 
	C946.187073,130.478806 940.538330,130.288757 934.139954,123.835793 
	C928.172302,117.817299 922.200317,111.795822 916.031921,105.986259 
	C912.084900,102.268829 910.826904,97.930962 912.161682,92.875557 
	C912.925415,89.982826 912.747192,87.557274 911.416321,84.764030 
	C908.831726,79.339462 909.443176,74.120071 913.941101,69.670860 
	C916.661133,66.980286 919.262329,64.169601 922.180969,61.176018 
M922.193726,106.636581 
	C926.813416,112.431068 931.925476,117.717148 938.218750,122.658775 
	C941.728271,126.885368 944.940979,127.107193 949.455811,122.740417 
	C963.081909,109.561371 976.631653,96.300735 990.041016,82.901649 
	C995.104065,77.842392 994.990845,73.767227 989.988403,68.639565 
	C983.719299,62.213612 977.235474,55.997128 970.845459,49.689121 
	C968.424683,47.299408 965.421265,45.930744 962.237244,47.133156 
	C958.095398,48.697296 954.584900,47.888836 950.757385,46.173897 
	C944.904846,43.551704 938.762512,46.770252 936.580322,53.565311 
	C937.839233,52.397278 938.852966,51.561634 939.744263,50.611259 
	C943.104431,47.028336 946.848816,45.798523 951.307800,48.584152 
	C954.716125,50.713440 958.277344,50.488895 961.865845,49.205505 
	C964.845215,48.139961 967.283447,48.652561 969.549500,50.994785 
	C975.677979,57.329445 981.970703,63.504982 988.118225,69.821541 
	C990.378296,72.143738 992.497375,74.824539 990.399170,78.216743 
	C988.231689,81.721016 986.109192,85.383469 980.730713,84.363571 
	C976.017700,83.469833 972.009766,85.058334 968.686768,88.776985 
	C965.145447,92.739899 961.404907,96.573868 957.398376,100.058327 
	C953.233643,103.680290 951.494751,107.968399 952.209045,113.327431 
	C952.509155,115.578804 952.019653,117.353409 950.609741,119.300652 
	C947.093262,124.157478 942.913025,124.482544 937.762329,121.388809 
	C933.165161,115.583580 928.001038,110.359917 921.671997,105.411369 
	C917.875000,101.237625 914.630554,96.999191 917.714722,90.840202 
	C918.289795,89.691872 918.045898,87.712196 917.443909,86.474220 
	C915.588562,82.659431 914.167725,78.837563 915.086426,74.415047 
	C912.301270,77.498451 912.841125,80.692291 914.558533,83.675995 
	C916.252136,86.618340 916.508057,89.430115 915.699829,92.728912 
	C913.979492,99.749542 915.345276,102.300941 922.193726,106.636581 
M958.210327,94.750214 
	C958.939331,94.089577 959.668274,93.428947 960.820374,92.333069 
	C967.012939,86.073502 972.720886,79.620682 983.264709,81.093117 
	C987.825439,81.730019 989.712280,75.571724 986.366821,72.107628 
	C980.476135,66.008148 974.389893,60.097855 968.469116,54.026863 
	C966.494263,52.001881 964.377319,51.314079 961.736877,52.368042 
	C957.938416,53.884209 954.303101,53.585938 950.706177,51.612324 
	C947.659851,49.940845 944.706055,49.894493 942.054626,52.585472 
	C934.941833,59.804470 927.811646,67.006607 920.652039,74.179138 
	C918.045654,76.790268 917.739502,79.576996 919.518555,82.765083 
	C921.390442,86.119339 921.739136,89.652336 920.594360,93.367653 
	C919.621094,96.526550 920.517456,99.040245 922.986206,101.408607 
	C928.369141,106.572792 933.451355,112.048897 938.731506,117.322464 
	C940.326050,118.915070 941.945557,121.237267 944.578857,120.209496 
	C947.554993,119.047943 949.927551,116.316307 949.390442,113.281174 
	C947.942078,105.096451 952.385925,100.103745 958.210327,94.750214 
M923.860474,64.334091 
	C922.901978,65.837494 920.665222,66.480186 920.444946,69.549911 
	C924.475830,66.154007 927.659180,63.137909 929.755066,59.022556 
	C927.940613,60.619450 926.126221,62.216347 923.860474,64.334091 
z"/>
<path fill="#000000" opacity="1.000000" stroke="none" 
	d="
M663.692871,980.359497 
	C664.804565,985.959717 660.424194,987.772522 657.374939,989.800049 
	C654.438843,991.752319 651.399170,989.936401 648.942993,987.518494 
	C642.779846,981.451111 636.678406,975.337097 630.879456,968.908081 
	C628.285522,966.032227 627.837097,963.032654 629.080750,959.750366 
	C630.322693,956.472290 629.864502,953.606567 628.160461,950.709534 
	C625.677795,946.488586 626.588806,942.852722 630.010803,939.497192 
	C637.019653,932.624573 643.903809,925.625000 650.877991,918.716736 
	C654.508606,915.120544 658.355835,913.323547 663.255432,916.804504 
	C665.835449,918.637634 668.984680,919.083862 672.229858,918.367188 
	C668.854797,920.913513 665.419373,920.455933 662.091797,918.657654 
	C658.404785,916.665222 655.552979,917.582947 652.767578,920.460754 
	C645.829529,927.629028 638.823853,934.735596 631.697205,941.715637 
	C629.153931,944.206604 628.505981,946.684265 630.413513,949.683105 
	C632.625549,953.160461 633.017578,956.728943 631.570007,960.632263 
	C630.563538,963.346130 631.214722,965.799072 633.378601,967.905762 
	C639.334656,973.704163 645.179016,979.617310 651.145752,985.404541 
	C652.534851,986.752014 654.063171,988.399353 656.375061,987.125427 
	C658.445618,985.984375 660.958435,984.634399 660.542480,982.025085 
	C658.902039,971.735596 665.623962,966.199402 672.142395,960.369507 
	C675.702209,957.185730 678.122009,952.783997 682.767639,950.737183 
	C685.956543,949.332092 689.063416,948.234558 692.559753,950.173767 
	C678.920654,950.921753 674.157654,963.210449 665.715637,970.574829 
	C663.194275,972.774292 662.897766,976.506897 663.692871,980.359497 
z"/>
<path fill="#000000" opacity="1.000000" stroke="none" 
	d="
M626.325562,952.979065 
	C627.715027,955.647400 626.911560,957.856567 626.402100,960.150513 
	C625.544128,964.013733 625.432312,967.882812 628.782471,970.783081 
	C635.333252,976.453857 641.076782,982.944214 647.350220,988.884094 
	C653.374084,994.587585 656.276550,994.470276 662.222229,988.734863 
	C671.328491,979.950439 680.257751,970.982727 689.321655,962.153870 
	C690.686523,960.824402 691.761230,958.965149 694.055908,958.699829 
	C694.696228,960.664734 693.056335,961.430481 692.124817,962.379150 
	C682.327454,972.356750 672.519653,982.325378 662.607788,992.188904 
	C657.770081,997.003052 651.986877,997.192200 647.077576,992.485779 
	C639.994995,985.695862 633.077576,978.722961 626.322754,971.606934 
	C623.437012,968.566895 622.333374,964.689941 623.855225,960.485168 
	C624.861694,957.704407 625.144409,955.060486 623.531067,952.340454 
	C620.119934,946.589417 621.567322,941.209412 625.843689,936.819397 
	C633.727417,928.725891 641.977600,920.988342 650.118958,913.147949 
	C651.263611,912.045593 652.457703,910.715332 655.661560,911.706360 
	C646.302307,920.755920 637.351440,929.284973 628.550964,937.966492 
	C623.163940,943.280518 622.911316,945.615112 626.325562,952.979065 
z"/>
<path fill="#000000" opacity="1.000000" stroke="none" 
	d="
M88.028366,915.026550 
	C79.545952,909.923340 73.510612,912.927429 67.691452,919.384460 
	C61.692261,926.041260 55.008709,932.081482 48.620045,938.386902 
	C44.851337,942.106506 43.967682,946.455811 46.391788,951.120667 
	C48.055462,954.322266 48.466022,957.416626 47.092968,960.686523 
	C45.408669,964.697632 46.968185,967.869690 49.666740,970.621765 
	C55.487164,976.557434 61.383224,982.420776 67.329987,988.230164 
	C73.334610,994.096069 74.996544,994.249939 83.066727,990.170471 
	C82.397804,995.175537 76.846153,997.608215 71.451347,995.021667 
	C66.697159,992.742249 63.738445,988.271912 59.942802,984.830872 
	C55.641155,980.931152 51.837696,976.487732 47.650883,972.453796 
	C43.918751,968.857910 42.532520,964.768616 44.211494,959.806641 
	C44.873360,957.850586 45.375057,955.823303 44.325390,953.992432 
	C40.032314,946.504395 42.130371,940.371216 47.947815,934.782898 
	C55.244442,927.773621 62.454014,920.672974 69.653374,913.563416 
	C74.155571,909.117310 79.199135,908.467896 84.688057,911.353027 
	C87.459579,912.809875 90.287582,913.091553 94.382713,911.860962 
	C92.123207,914.335510 90.420540,915.004883 88.028366,915.026550 
z"/>
<path fill="#000000" opacity="1.000000" stroke="none" 
	d="
M73.257133,986.713013 
	C77.805847,987.641968 81.429497,984.863770 81.350197,980.686401 
	C81.296303,977.847595 81.416862,975.149841 83.327347,972.796448 
	C83.436897,978.190979 86.337433,983.910339 80.384178,988.438293 
	C76.830299,991.141296 73.734146,991.381470 70.631828,988.366699 
	C64.075439,981.995544 57.662369,975.476929 51.183784,969.025513 
	C48.825775,966.677551 48.075325,963.932007 49.298210,960.812988 
	C50.671856,957.309631 50.429134,954.075928 48.382572,950.857300 
	C45.866386,946.899963 46.631020,943.359741 49.958580,940.107849 
	C56.971260,933.254395 63.832310,926.245667 70.856247,919.403992 
	C77.574661,912.859924 79.778656,912.917236 87.742554,920.124939 
	C77.326942,913.416870 72.324905,921.065002 66.634193,927.148987 
	C61.980106,932.124817 57.219822,937.008972 52.338772,941.761414 
	C50.072899,943.967590 49.574425,946.239014 51.015404,948.912292 
	C53.278629,953.111023 53.753750,957.385376 51.978191,961.866394 
	C51.220760,963.778076 51.668514,965.447998 53.134254,966.868652 
	C59.815350,973.345093 65.741982,980.583130 73.257133,986.713013 
z"/>
<path fill="#000000" opacity="1.000000" stroke="none" 
	d="
M671.385681,959.333740 
	C663.186951,966.187256 653.797180,966.197144 647.920471,959.645325 
	C641.279297,952.241028 641.478394,942.475525 648.403137,935.969910 
	C654.038635,930.675537 662.851868,930.194153 668.878784,934.851501 
	C675.735291,940.150024 677.649048,948.432434 673.661133,955.614502 
	C673.015564,956.777222 672.304749,957.903564 671.385681,959.333740 
M649.908875,957.574951 
	C654.898560,962.182373 660.391602,962.829407 666.381836,959.691467 
	C670.801392,957.376343 674.206055,951.297485 673.519653,946.406067 
	C672.714111,940.664917 669.593445,936.627686 663.996460,934.759644 
	C658.184875,932.820007 652.682007,934.724060 648.621155,939.970093 
	C644.938721,944.727173 645.216980,950.494385 649.908875,957.574951 
z"/>
<path fill="#000000" opacity="1.000000" stroke="none" 
	d="
M359.139343,49.231918 
	C352.053345,56.522427 345.217285,63.580372 338.339935,70.597908 
	C334.008545,75.017624 332.969421,78.451485 335.971527,83.542366 
	C339.263306,89.124367 335.365662,93.689751 334.482117,98.811798 
	C336.366486,91.104034 332.473206,84.205315 332.026581,76.869171 
	C331.908386,74.927391 332.985565,72.930367 334.339813,71.433006 
	C343.022644,61.832752 352.566345,53.137886 362.907318,45.205158 
	C361.728821,46.464191 360.550354,47.723225 359.139343,49.231918 
z"/>
<path fill="#000000" opacity="1.000000" stroke="none" 
	d="
M355.942993,58.957001 
	C352.015076,64.491592 346.980988,68.634583 342.444794,73.238197 
	C339.451385,76.276108 338.623535,79.061920 340.982300,82.927444 
	C343.459015,86.986336 343.744476,91.207214 339.578247,94.943802 
	C340.587219,89.832161 339.862305,85.174622 337.232666,80.696411 
	C336.269592,79.056297 336.639862,76.769852 338.009277,75.038315 
	C342.976746,68.757500 348.994904,63.509483 354.781891,58.036060 
	C354.980591,57.848141 355.461365,57.761177 355.697510,57.870842 
	C355.896606,57.963314 355.931000,58.410412 355.942993,58.957001 
z"/>
<path fill="#000000" opacity="1.000000" stroke="none" 
	d="
M74.211304,932.774597 
	C75.141090,932.630432 75.767296,932.551331 76.393494,932.472290 
	C71.522446,936.367798 66.941124,940.430725 66.475151,947.013855 
	C66.011795,953.559875 69.323723,958.377991 75.566147,962.076416 
	C68.618256,960.996033 64.486938,956.398804 63.807922,949.876953 
	C63.014675,942.257996 66.940643,935.635315 74.211304,932.774597 
z"/>
<path fill="#000000" opacity="1.000000" stroke="none" 
	d="
M366.523346,96.113098 
	C359.214813,93.855118 354.753906,89.602066 354.304993,81.688698 
	C358.805420,93.818222 366.596375,98.162422 379.310425,91.876404 
	C375.897888,96.055351 375.897888,96.055351 366.523346,96.113098 
z"/>
<path fill="#000000" opacity="1.000000" stroke="none" 
	d="
M50.731285,357.785645 
	C45.999832,361.881500 44.206924,366.721954 45.754173,373.244446 
	C39.789566,366.909668 44.346535,358.446106 55.578636,351.996216 
	C54.418682,354.581940 52.493500,355.897949 50.731285,357.785645 
z"/>
<path fill="#000000" opacity="1.000000" stroke="none" 
	d="
M360.878082,66.525131 
	C364.320343,65.137840 367.461609,64.309486 371.011719,65.525780 
	C363.883698,65.834145 359.606201,70.358192 355.270538,76.799683 
	C355.377930,71.432915 357.675873,68.912659 360.878082,66.525131 
z"/>
<path fill="#000000" opacity="1.000000" stroke="none" 
	d="
M385.773132,79.283447 
	C385.665405,80.969231 385.565582,82.289062 385.290833,83.571396 
	C385.130219,84.320831 384.690216,85.010406 383.868896,85.748398 
	C384.156036,80.329659 384.345001,75.009857 380.760193,70.408493 
	C384.019257,72.417938 384.773895,75.710564 385.773132,79.283447 
z"/>
<path fill="#000000" opacity="1.000000" stroke="none" 
	d="
M957.998291,95.056015 
	C954.803406,95.608688 952.197144,97.248848 949.112000,97.376549 
	C940.171875,97.746574 932.323181,90.871582 931.716003,81.819725 
	C931.103455,72.687935 938.470215,64.237930 947.316040,63.925797 
	C956.537292,63.600418 963.733643,70.479477 964.518799,79.632240 
	C964.943970,84.588203 962.364990,88.155792 960.422546,92.448914 
	C959.668274,93.428947 958.939331,94.089577 957.998291,95.056015 
M934.833862,79.121315 
	C933.000916,88.422249 944.056702,95.789177 950.234436,94.343201 
	C957.341187,92.679764 962.090149,86.922119 961.810913,79.607185 
	C961.583984,73.661903 956.114685,67.827042 950.177612,67.196358 
	C942.488708,66.379578 936.978271,70.435371 934.833862,79.121315 
z"/>
<path fill="#000000" opacity="1.000000" stroke="none" 
	d="
M401.928162,324.119629 
	C399.324890,325.183716 398.043518,324.409454 397.765472,322.023163 
	C396.521851,311.350464 400.480042,302.927979 408.729614,296.241577 
	C415.984833,290.361084 423.824921,289.076477 432.484497,292.598663 
	C437.149506,294.496094 441.477966,296.905060 444.957794,300.608337 
	C447.168457,302.960968 447.770874,305.578400 445.330200,308.118805 
	C442.968964,310.576569 440.337402,310.374542 437.765015,308.345947 
	C432.949738,304.548553 428.125793,300.792542 421.277832,301.526215 
	C421.400909,303.541779 423.000641,304.169037 423.823029,305.320343 
	C426.956329,309.706879 426.915161,315.816711 423.604065,320.218597 
	C419.638367,325.490723 414.848633,327.165192 409.278778,325.459747 
	C407.009338,324.764893 405.023224,322.488007 401.928162,324.119629 
M413.333740,309.683899 
	C413.131592,311.807831 413.875336,313.322998 416.164886,313.496368 
	C417.841583,313.623291 419.008026,312.650543 419.500610,311.080322 
	C419.868713,309.906921 419.651947,308.670135 418.570068,307.966858 
	C416.626740,306.703522 414.833282,306.822021 413.333740,309.683899 
z"/>
<path fill="#000000" opacity="1.000000" stroke="none" 
	d="
M493.620728,313.863159 
	C492.539154,317.499908 490.102722,318.584869 486.982544,318.197845 
	C482.488007,317.640350 479.964325,319.557434 479.343506,323.948700 
	C478.801208,327.784698 476.937561,330.562561 472.864258,329.648438 
	C468.475555,328.663574 468.334930,325.003693 469.174408,321.246979 
	C471.573395,310.510956 480.295868,304.583374 488.988403,307.811646 
	C491.652710,308.801178 493.730560,310.255493 493.620728,313.863159 
z"/>
</svg>